# xmcd
# Copyright (C) 1995-1998 Ti Kan
#
# Track frame offsets:
#       150
#       16512
#       31127
#       47626
#       69496
#       83401
#       108129
#       126063
#       146873
#       165233
#       186101
#
# Disc length: 2590 seconds
#
# Revision: 0
# Processed by: cddbd v1.5.2PL0 Copyright (c) Steve Scherf et al.
# Submitted via: CD-Transfer v1.0
#
DISCID=7a0a1c0b
DTITLE=Magicrays - Off The Map
DYEAR=07
DGENRE=
TTITLE0=The Green River
TTITLE1=Turn Insight Into Action
TTITLE2=Marks
TTITLE3=Off
TTITLE4=The Map
TTITLE5=9:21
TTITLE6=Hold Your Shoes
TTITLE7=Dragon Shield
TTITLE8=Twilight Descent
TTITLE9=Heart Burn
TTITLE10=Rotten Flowers
EXTD=
EXTT0=
EXTT1=
EXTT2=
EXTT3=
EXTT4=
EXTT5=
EXTT6=
EXTT7=
EXTT8=
EXTT9=
EXTT10=
PLAYORDER=
